<svg xmlns="http://www.w3.org/2000/svg" xml:space="preserve" width="16px" height="8px" version="1.1"
     viewBox="0 0 1.9 0.96">
    <g>
    <path fill="#fff" class="fill"
          d="M0.18 0.95l1.67 -0.56c0.04,-0.02 0.05,-0.09 0.03,-0.18l-0.03 -0.08c-0.03,-0.08 -0.09,-0.13 -0.13,-0.12l-1.67 0.56c-0.04,0.02 -0.05,0.09 -0.03,0.17l0.03 0.09c0.03,0.08 0.09,0.13 0.13,0.12zm0.02 -0.22l0.03 -0.22 -0.03 0.22zm0.25 -0.1l0.04 -0.21 -0.04 0.21zm0.23 -0.08l0.03 -0.2 -0.03 0.2zm0.21 -0.06l0.04 -0.21 -0.04 0.21zm0.25 -0.1l0.04 -0.2 -0.04 0.2zm0.23 -0.08l0.04 -0.19 -0.04 0.19zm0.21 -0.06l0.03 -0.2 -0.03 0.2z"/>
        <path fill="none" stroke="#000" stroke-width="0.04"
              d="M0.18 0.95l1.67 -0.56c0.04,-0.02 0.05,-0.09 0.03,-0.18l-0.03 -0.08c-0.03,-0.08 -0.09,-0.13 -0.13,-0.12l-1.67 0.56c-0.04,0.02 -0.05,0.09 -0.03,0.17l0.03 0.09c0.03,0.08 0.09,0.13 0.13,0.12zm0.02 -0.22l0.03 -0.22m0.22 0.12l0.04 -0.21m0.19 0.13l0.03 -0.2m0.18 0.14l0.04 -0.21m0.21 0.11l0.04 -0.2m0.19 0.12l0.04 -0.19m0.17 0.13l0.03 -0.2"/>
   </g>
    <g>
    <path fill="#fff" class="fill"
          d="M1.72 0.95l-1.67 -0.56c-0.04,-0.02 -0.05,-0.09 -0.03,-0.17l0.03 -0.09c0.03,-0.08 0.09,-0.13 0.13,-0.12l1.67 0.56c0.04,0.02 0.05,0.09 0.03,0.17l-0.03 0.09c-0.03,0.08 -0.09,0.13 -0.13,0.12zm-0.02 -0.22l-0.04 -0.22 0.04 0.22zm-0.25 -0.1l-0.04 -0.21 0.04 0.21zm-0.23 -0.08l-0.03 -0.2 0.03 0.2zm-0.21 -0.06l-0.04 -0.21 0.04 0.21zm-0.26 -0.1l-0.03 -0.2 0.03 0.2zm-0.22 -0.08l-0.04 -0.19 0.04 0.19zm-0.21 -0.06l-0.03 -0.2 0.03 0.2z"/>
        <path fill="none" stroke="#000" stroke-width="0.04"
              d="M1.72 0.95l-1.67 -0.56c-0.04,-0.02 -0.05,-0.09 -0.03,-0.17l0.03 -0.09c0.03,-0.08 0.09,-0.13 0.13,-0.12l1.67 0.56c0.04,0.02 0.05,0.09 0.03,0.17l-0.03 0.09c-0.03,0.08 -0.09,0.13 -0.13,0.12zm-0.02 -0.22l-0.04 -0.22m-0.21 0.12l-0.04 -0.21m-0.19 0.13l-0.03 -0.2m-0.18 0.14l-0.04 -0.21m-0.22 0.11l-0.03 -0.2m-0.19 0.12l-0.04 -0.19m-0.17 0.13l-0.03 -0.2"/>
 </g>
</svg>
