<svg xmlns="http://www.w3.org/2000/svg" xml:space="preserve" width="16px" height="16px" version="1.1"
     viewBox="0 0 2.2 2.2">
   <path fill="#fff"
         d="M0.03 0.37l0.79 0.78 0.34 -0.34 -0.8 -0.78c-0.04,-0.04 -0.13,-0.01 -0.2,0.06l-0.07 0.08c-0.07,0.07 -0.1,0.16 -0.06,0.2zm0.24 -0.1l0.25 -0.08 -0.25 0.08zm0.25 0.22l0.24 -0.08 -0.24 0.08zm0.2 0.2l0.25 -0.08 -0.25 0.08zm0.19 0.19l0.24 -0.07 -0.24 0.07z"/>
    <path fill="none" stroke="#000" stroke-width="0.04"
          d="M0.03 0.37l0.79 0.78 0.34 -0.34 -0.8 -0.78c-0.04,-0.04 -0.13,-0.01 -0.2,0.06l-0.07 0.08c-0.07,0.07 -0.1,0.16 -0.06,0.2zm0.24 -0.1l0.25 -0.08m0 0.3l0.24 -0.08m-0.04 0.28l0.25 -0.08m-0.06 0.27l0.24 -0.07"/>
</svg>
