<svg xmlns="http://www.w3.org/2000/svg" width="32px" height="32px" version="1.1" viewBox="0 0 3.8 3.79">
    <path fill="#fff"
          d="M0.05 0.73l1.59 1.57 0.67 -0.68 -1.59 -1.57c-0.07,-0.07 -0.25,-0.02 -0.4,0.13l-0.15 0.15c-0.14,0.15 -0.19,0.33 -0.12,0.4zm0.5 -0.2l0.49 -0.15 -0.49 0.15zm0.48 0.45l0.49 -0.15 -0.49 0.15zm0.42 0.39l0.49 -0.15 -0.49 0.15zm0.36 0.4l0.49 -0.15 -0.49 0.15z"/>
    <path fill="none" stroke="#000" stroke-width="0.04"
          d="M0.05 0.73l1.59 1.57 0.67 -0.68 -1.59 -1.57c-0.07,-0.07 -0.25,-0.02 -0.4,0.13l-0.15 0.15c-0.14,0.15 -0.19,0.33 -0.12,0.4zm0.5 -0.2l0.49 -0.15m-0.01 0.6l0.49 -0.15m-0.07 0.54l0.49 -0.15m-0.13 0.55l0.49 -0.15"/>
    <path fill="#fff"
          d="M0.05 3.05l3.02 -2.98c0.08,-0.07 0.26,-0.02 0.41,0.13l0.14 0.15c0.15,0.15 0.2,0.33 0.12,0.4l-3.02 2.98c-0.07,0.08 -0.25,0.02 -0.4,-0.12l-0.15 -0.15c-0.14,-0.15 -0.19,-0.33 -0.12,-0.41zm0.5 0.2l0.49 0.15 -0.49 -0.15zm0.48 -0.44l0.49 0.15 -0.49 -0.15zm0.42 -0.4l0.49 0.15 -0.49 -0.15zm0.36 -0.39l0.49 0.15 -0.49 -0.15zm0.48 -0.44l0.49 0.15 -0.49 -0.15zm0.42 -0.4l0.46 0.14 -0.46 -0.14zm0.37 -0.38l0.47 0.14 -0.47 -0.14z"/>
    <path fill="none" stroke="#000" stroke-width="0.04"
          d="M0.05 3.05l3.02 -2.98c0.08,-0.07 0.26,-0.02 0.41,0.13l0.14 0.15c0.15,0.15 0.2,0.33 0.12,0.4l-3.02 2.98c-0.07,0.08 -0.25,0.02 -0.4,-0.12l-0.15 -0.15c-0.14,-0.15 -0.19,-0.33 -0.12,-0.41zm0.5 0.2l0.49 0.15m-0.01 -0.59l0.49 0.15m-0.07 -0.55l0.49 0.15m-0.13 -0.54l0.49 0.15m-0.01 -0.59l0.49 0.15m-0.07 -0.55l0.46 0.14m-0.09 -0.52l0.47 0.14"/>
</svg>
