<svg xmlns="http://www.w3.org/2000/svg" xml:space="preserve" width="16px" height="16px" version="1.1"
     viewBox="0 0 1.9 1.9">
  <g>
   <path fill="#fff" class="fill"
         d="M0.01 0.18l0.56 1.67c0.02,0.04 0.09,0.05 0.17,0.03l0.09 -0.03c0.08,-0.03 0.13,-0.09 0.12,-0.13l-0.56 -1.67c-0.02,-0.04 -0.09,-0.05 -0.17,-0.03l-0.09 0.03c-0.08,0.03 -0.13,0.09 -0.12,0.13zm0.22 0.02l0.22 0.03 -0.22 -0.03zm0.1 0.25l0.21 0.04 -0.21 -0.04zm0.08 0.23l0.2 0.03 -0.2 -0.03zm0.06 0.21l0.21 0.04 -0.21 -0.04zm0.09 0.25l0.2 0.04 -0.2 -0.04zm0.08 0.23l0.2 0.04 -0.2 -0.04zm0.07 0.21l0.2 0.03 -0.2 -0.03z"/>
      <path fill="none" stroke="#000" stroke-width="0.04"
            d="M0.01 0.18l0.56 1.67c0.02,0.04 0.09,0.05 0.17,0.03l0.09 -0.03c0.08,-0.03 0.13,-0.09 0.12,-0.13l-0.56 -1.67c-0.02,-0.04 -0.09,-0.05 -0.17,-0.03l-0.09 0.03c-0.08,0.03 -0.13,0.09 -0.12,0.13zm0.22 0.02l0.22 0.03m-0.12 0.22l0.21 0.04m-0.13 0.19l0.2 0.03m-0.14 0.18l0.21 0.04m-0.12 0.21l0.2 0.04m-0.12 0.19l0.2 0.04m-0.13 0.17l0.2 0.03"/>
  </g>
    <g>
   <path fill="#fff" class="fill"
         d="M0.01 1.72l0.56 -1.67c0.02,-0.04 0.09,-0.05 0.17,-0.03l0.09 0.03c0.08,0.03 0.13,0.09 0.12,0.13l-0.56 1.67c-0.02,0.04 -0.09,0.05 -0.18,0.03l-0.08 -0.03c-0.08,-0.03 -0.13,-0.09 -0.12,-0.13zm0.22 -0.02l0.22 -0.04 -0.22 0.04zm0.1 -0.25l0.21 -0.04 -0.21 0.04zm0.08 -0.23l0.2 -0.03 -0.2 0.03zm0.06 -0.21l0.21 -0.04 -0.21 0.04zm0.09 -0.26l0.2 -0.03 -0.2 0.03zm0.08 -0.22l0.2 -0.04 -0.2 0.04zm0.07 -0.21l0.2 -0.03 -0.2 0.03z"/>
        <path fill="none" stroke="#000" stroke-width="0.04"
              d="M0.01 1.72l0.56 -1.67c0.02,-0.04 0.09,-0.05 0.17,-0.03l0.09 0.03c0.08,0.03 0.13,0.09 0.12,0.13l-0.56 1.67c-0.02,0.04 -0.09,0.05 -0.18,0.03l-0.08 -0.03c-0.08,-0.03 -0.13,-0.09 -0.12,-0.13zm0.22 -0.02l0.22 -0.04m-0.12 -0.21l0.21 -0.04m-0.13 -0.19l0.2 -0.03m-0.14 -0.18l0.21 -0.04m-0.12 -0.22l0.2 -0.03m-0.12 -0.19l0.2 -0.04m-0.13 -0.17l0.2 -0.03"/>
  </g>
    <g>
   <path fill="#fff" class="fill"
         d="M0.95 0.18l0.56 1.67c0.02,0.04 0.09,0.05 0.17,0.03l0.09 -0.03c0.08,-0.03 0.13,-0.09 0.12,-0.13l-0.56 -1.67c-0.02,-0.04 -0.09,-0.05 -0.17,-0.03l-0.09 0.03c-0.08,0.03 -0.13,0.09 -0.12,0.13zm0.22 0.02l0.22 0.03 -0.22 -0.03zm0.1 0.25l0.21 0.04 -0.21 -0.04zm0.08 0.23l0.2 0.03 -0.2 -0.03zm0.06 0.21l0.21 0.04 -0.21 -0.04zm0.09 0.25l0.2 0.04 -0.2 -0.04zm0.08 0.23l0.2 0.04 -0.2 -0.04zm0.07 0.21l0.2 0.03 -0.2 -0.03z"/>
        <path fill="none" stroke="#000" stroke-width="0.04"
              d="M0.95 0.18l0.56 1.67c0.02,0.04 0.09,0.05 0.17,0.03l0.09 -0.03c0.08,-0.03 0.13,-0.09 0.12,-0.13l-0.56 -1.67c-0.02,-0.04 -0.09,-0.05 -0.17,-0.03l-0.09 0.03c-0.08,0.03 -0.13,0.09 -0.12,0.13zm0.22 0.02l0.22 0.03m-0.12 0.22l0.21 0.04m-0.13 0.19l0.2 0.03m-0.14 0.18l0.21 0.04m-0.12 0.21l0.2 0.04m-0.12 0.19l0.2 0.04m-0.13 0.17l0.2 0.03"/>
  </g>
    <g>
   <path fill="#fff" class="fill"
         d="M0.95 1.72l0.56 -1.67c0.02,-0.04 0.09,-0.05 0.17,-0.03l0.09 0.03c0.08,0.03 0.13,0.09 0.12,0.13l-0.56 1.67c-0.02,0.04 -0.09,0.05 -0.17,0.03l-0.09 -0.03c-0.08,-0.03 -0.13,-0.09 -0.12,-0.13zm0.22 -0.02l0.22 -0.04 -0.22 0.04zm0.1 -0.25l0.21 -0.04 -0.21 0.04zm0.08 -0.23l0.2 -0.03 -0.2 0.03zm0.06 -0.21l0.21 -0.04 -0.21 0.04zm0.09 -0.26l0.2 -0.03 -0.2 0.03zm0.08 -0.22l0.2 -0.04 -0.2 0.04zm0.07 -0.21l0.2 -0.03 -0.2 0.03z"/>
        <path fill="none" stroke="#000" stroke-width="0.04"
              d="M0.95 1.72l0.56 -1.67c0.02,-0.04 0.09,-0.05 0.17,-0.03l0.09 0.03c0.08,0.03 0.13,0.09 0.12,0.13l-0.56 1.67c-0.02,0.04 -0.09,0.05 -0.17,0.03l-0.09 -0.03c-0.08,-0.03 -0.13,-0.09 -0.12,-0.13zm0.22 -0.02l0.22 -0.04m-0.12 -0.21l0.21 -0.04m-0.13 -0.19l0.2 -0.03m-0.14 -0.18l0.21 -0.04m-0.12 -0.22l0.2 -0.03m-0.12 -0.19l0.2 -0.04m-0.13 -0.17l0.2 -0.03"/>
  </g>
</svg>
