<svg xmlns="http://www.w3.org/2000/svg" xml:space="preserve" width="16px" height="16px" version="1.1"
     viewBox="0 0 1.9 1.89">
  <g id="_3266259944544">
   <g>
    <path fill="#fff" class="fill"
          d="M0.03 0.37l1.51 1.5c0.04,0.03 0.13,0.01 0.2,-0.07l0.08 -0.07c0.07,-0.08 0.09,-0.17 0.06,-0.2l-1.52 -1.5c-0.04,-0.04 -0.13,-0.01 -0.2,0.07l-0.07 0.07c-0.07,0.07 -0.1,0.17 -0.06,0.2zm0.24 -0.1l0.25 -0.07 -0.25 0.07zm0.25 0.23l0.24 -0.08 -0.24 0.08zm0.21 0.19l0.24 -0.07 -0.24 0.07zm0.18 0.2l0.24 -0.07 -0.24 0.07zm0.24 0.22l0.24 -0.07 -0.24 0.07zm0.21 0.2l0.23 -0.07 -0.23 0.07zm0.18 0.19l0.24 -0.07 -0.24 0.07z"/>
       <path fill="none" stroke="#000" stroke-width="0.04"
             d="M0.03 0.37l1.51 1.5c0.04,0.03 0.13,0.01 0.2,-0.07l0.08 -0.07c0.07,-0.08 0.09,-0.17 0.06,-0.2l-1.52 -1.5c-0.04,-0.04 -0.13,-0.01 -0.2,0.07l-0.07 0.07c-0.07,0.07 -0.1,0.17 -0.06,0.2zm0.24 -0.1l0.25 -0.07m0 0.3l0.24 -0.08m-0.03 0.27l0.24 -0.07m-0.06 0.27l0.24 -0.07m0 0.29l0.24 -0.07m-0.03 0.27l0.23 -0.07m-0.05 0.26l0.24 -0.07"/>
   </g>
      <g>
    <path fill="#fff" class="fill"
          d="M0.03 1.52l1.51 -1.49c0.04,-0.04 0.13,-0.01 0.2,0.06l0.08 0.08c0.07,0.07 0.09,0.16 0.06,0.2l-1.52 1.49c-0.04,0.04 -0.13,0.01 -0.2,-0.06l-0.07 -0.08c-0.07,-0.07 -0.1,-0.16 -0.06,-0.2zm0.24 0.1l0.25 0.07 -0.25 -0.07zm0.25 -0.22l0.24 0.07 -0.24 -0.07zm0.21 -0.2l0.24 0.07 -0.24 -0.07zm0.18 -0.2l0.24 0.08 -0.24 -0.08zm0.24 -0.22l0.24 0.07 -0.24 -0.07zm0.21 -0.2l0.23 0.07 -0.23 -0.07zm0.18 -0.19l0.24 0.07 -0.24 -0.07z"/>
          <path fill="none" stroke="#000" stroke-width="0.04"
                d="M0.03 1.52l1.51 -1.49c0.04,-0.04 0.13,-0.01 0.2,0.06l0.08 0.08c0.07,0.07 0.09,0.16 0.06,0.2l-1.52 1.49c-0.04,0.04 -0.13,0.01 -0.2,-0.06l-0.07 -0.08c-0.07,-0.07 -0.1,-0.16 -0.06,-0.2zm0.24 0.1l0.25 0.07m0 -0.29l0.24 0.07m-0.03 -0.27l0.24 0.07m-0.06 -0.27l0.24 0.08m0 -0.3l0.24 0.07m-0.03 -0.27l0.23 0.07m-0.05 -0.26l0.24 0.07"/>
   </g>
 </g>
</svg>
