<svg xmlns="http://www.w3.org/2000/svg" xml:space="preserve" width="16px" height="16px" version="1.1"
     viewBox="0 0 3.81 3.77">
   <path fill="#fff"
         d="M0.05 0.73l3.03 2.99c0.08,0.08 0.26,0.02 0.4,-0.13l0.15 -0.15c0.14,-0.14 0.2,-0.33 0.12,-0.4l-3.03 -2.99c-0.07,-0.07 -0.25,-0.02 -0.4,0.13l-0.15 0.15c-0.14,0.15 -0.19,0.33 -0.12,0.4zm0.5 -0.19l0.49 -0.15 -0.49 0.15zm0.48 0.44l0.5 -0.15 -0.5 0.15zm0.42 0.39l0.49 -0.15 -0.49 0.15zm0.36 0.4l0.5 -0.15 -0.5 0.15zm0.49 0.44l0.49 -0.15 -0.49 0.15zm0.41 0.4l0.47 -0.14 -0.47 0.14zm0.37 0.38l0.48 -0.14 -0.48 0.14z"/>
    <path fill="none" stroke="#000" stroke-width="0.08"
          d="M0.05 0.73l3.03 2.99c0.08,0.08 0.26,0.02 0.4,-0.13l0.15 -0.15c0.14,-0.14 0.2,-0.33 0.12,-0.4l-3.03 -2.99c-0.07,-0.07 -0.25,-0.02 -0.4,0.13l-0.15 0.15c-0.14,0.15 -0.19,0.33 -0.12,0.4zm0.5 -0.19l0.49 -0.15m-0.01 0.59l0.5 -0.15m-0.08 0.54l0.49 -0.15m-0.13 0.55l0.5 -0.15m-0.01 0.59l0.49 -0.15m-0.08 0.55l0.47 -0.14m-0.1 0.52l0.48 -0.14"/>
</svg>
