<svg xmlns="http://www.w3.org/2000/svg" xml:space="preserve" width="16px" height="16px"
     version="1.1"
     viewBox="0 0 2 2">
   <g>
    <path fill="#fff"
          d="M0.02 0.21l0.85 0.84c0.02,0.02 0.07,0.01 0.11,-0.03l0.04 -0.05c0.04,-0.04 0.06,-0.09 0.04,-0.11l-0.85 -0.84c-0.02,-0.02 -0.07,0 -0.11,0.04l-0.05 0.04c-0.04,0.04 -0.05,0.09 -0.03,0.11zm0.14 -0.05l0.14 -0.04 -0.14 0.04zm0.14 0.12l0.13 -0.04 -0.13 0.04zm0.11 0.11l0.14 -0.04 -0.14 0.04zm0.1 0.12l0.14 -0.05 -0.14 0.05zm0.14 0.12l0.14 -0.04 -0.14 0.04zm0.12 0.11l0.13 -0.04 -0.13 0.04zm0.1 0.11l0.14 -0.04 -0.14 0.04z"/>
       <path fill="none" stroke="#000" stroke-width="0.04"
             d="M0.02 0.21l0.85 0.84c0.02,0.02 0.07,0.01 0.11,-0.03l0.04 -0.05c0.04,-0.04 0.06,-0.09 0.04,-0.11l-0.85 -0.84c-0.02,-0.02 -0.07,0 -0.11,0.04l-0.05 0.04c-0.04,0.04 -0.05,0.09 -0.03,0.11zm0.14 -0.05l0.14 -0.04m0 0.16l0.13 -0.04m-0.02 0.15l0.14 -0.04m-0.04 0.16l0.14 -0.05m0 0.17l0.14 -0.04m-0.02 0.15l0.13 -0.04m-0.03 0.15l0.14 -0.04"/>
   </g>
    <g>
    <path fill="#fff"
          d="M0.02 0.86l0.85 -0.84c0.02,-0.02 0.07,-0.01 0.11,0.04l0.04 0.04c0.04,0.04 0.06,0.09 0.04,0.11l-0.85 0.84c-0.02,0.02 -0.07,0 -0.11,-0.04l-0.05 -0.04c-0.04,-0.04 -0.05,-0.09 -0.03,-0.11zm0.14 0.05l0.14 0.05 -0.14 -0.05zm0.14 -0.12l0.13 0.04 -0.13 -0.04zm0.11 -0.11l0.14 0.04 -0.14 -0.04zm0.1 -0.11l0.14 0.04 -0.14 -0.04zm0.14 -0.13l0.14 0.04 -0.14 -0.04zm0.12 -0.11l0.13 0.04 -0.13 -0.04zm0.1 -0.1l0.14 0.03 -0.14 -0.03z"/>
        <path fill="none" stroke="#000" stroke-width="0.04"
              d="M0.02 0.86l0.85 -0.84c0.02,-0.02 0.07,-0.01 0.11,0.04l0.04 0.04c0.04,0.04 0.06,0.09 0.04,0.11l-0.85 0.84c-0.02,0.02 -0.07,0 -0.11,-0.04l-0.05 -0.04c-0.04,-0.04 -0.05,-0.09 -0.03,-0.11zm0.14 0.05l0.14 0.05m0 -0.17l0.13 0.04m-0.02 -0.15l0.14 0.04m-0.04 -0.15l0.14 0.04m0 -0.17l0.14 0.04m-0.02 -0.15l0.13 0.04m-0.03 -0.14l0.14 0.03"/>
   </g>
</svg>
